Coordinates
version=1
nRows=19
nColumns=33
inDegrees=yes

Units are S.I. units (second, meters, Newtons, ...)
Angles are in degrees.

endheader
time	ground_thorax_rot_x	ground_thorax_rot_y	ground_thorax_rot_z	ground_thorax_tx	ground_thorax_ty	ground_thorax_tz	clav_prot_r	clav_elev_r	scapula_abduction_r	scapula_elevation_r	scapula_upward_rot_r	scapula_winging_r	shoulder_elv_r	plane_of_elev_r	axial_rot_r	elbow_flexion_r	pro_sup_r	wrist_flex_r	wrist_dev_r	clav_prot_l	clav_elev_l	scapula_abduction_l	scapula_elevation_l	scapula_upward_rot_l	scapula_winging_l	shoulder_elv_l	plane_of_elev_l	axial_rot_l	elbow_flexion_l	pro_sup_l	wrist_flex_l	wrist_dev_l
      2.66000000	    -40.27414541	     -7.45524575	      8.16681018	    -99.12666029	    772.25936589	      6.97904746	      6.32595514	    -45.00000000	     43.25870583	    -45.00000000	    -29.76510339	  -2968.48747449	  -1551.01039843	    144.60446419	    179.99999979	    726.63289800	     51.44581189	     22.57492128	     14.84024148	     19.11060808	     41.34708496	    -45.00000000	    -41.56247950	    -30.73666511	   4040.30494948	  -2813.74758295	     25.37501176	    -30.60120779	    727.22826143	     20.06990537	      9.18824661	    -18.10336185
      2.67000000	    -40.28921030	     -7.38701583	      8.22001081	   -100.91664154	    772.93905586	      6.88352798	      5.99729067	    -45.00000000	     42.93254737	    -45.00000000	    -30.41992961	  -2968.58438407	  -1550.82370537	    144.35337169	    179.99999979	    726.84692496	     51.23712053	     22.69900636	     14.83696209	     18.75824383	     40.63007309	    -45.00000000	    -41.46753195	    -30.36902832	   4040.57912060	  -2813.72062776	     25.28810698	    -30.48777949	    727.26925447	     20.03029982	      9.44977746	    -18.23592531
      2.68000000	    -40.39825715	     -7.70106887	      8.66766744	   -102.77954648	    773.68059320	      6.78099488	      6.23470898	    -45.00000000	     42.36929114	    -45.00000000	    -31.14664575	  -2968.47945631	  -1550.72683871	    144.47846573	    179.99999979	    726.92195388	     50.96668913	     22.61288519	     14.77987973	     19.11323661	     41.50010927	    -45.00000000	    -42.10895586	    -31.50708361	   4040.34780160	  -2813.67104086	     25.38125921	    -30.11755954	    727.49054763	     19.81535120	      9.25547132	    -18.25293677
      2.69000000	    -40.52152348	     -8.06409695	      9.32376959	   -104.69519720	    774.48259020	      6.67366070	      6.19818316	    -45.00000000	     41.97735721	    -45.00000000	    -32.62824299	  -2968.35090537	  -1550.41263067	    144.40683030	    179.99999979	    726.95349082	     50.71588476	     22.64260276	     14.84047597	     19.38049166	     41.68952999	    -44.66291705	    -42.56380947	    -32.56425146	   4040.02928673	  -2813.43321853	     25.70060535	    -29.29468361	    727.53543864	     19.52083068	      9.19343102	    -18.26781010
      2.70000000	    -40.72111339	     -9.42116973	     11.18380720	   -106.67912298	    775.35374993	      6.56192104	      6.36511962	    -45.00000000	     40.34934486	    -45.00000000	    -36.76023721	  -2968.00022698	  -1549.90561399	    143.91348283	    179.99999979	    727.18536376	     50.24112951	     22.71835443	     14.87976166	     20.35424838	     41.32204187	    -43.99021320	    -43.81952942	    -35.76607237	   4038.82558284	  -2812.77579619	     26.21218553	    -26.80985936	    727.52334216	     18.79782927	      9.38848562	    -18.30203520
      2.71000000	    -40.68392401	     -9.09569143	     10.76654686	   -108.72252465	    776.29897696	      6.44642184	      6.02352807	    -45.00000000	     40.64313068	    -45.00000000	    -35.91002695	  -2968.18123605	  -1549.83287828	    144.03797545	    179.99999979	    727.19379280	     50.16986756	     22.72094697	     14.84639148	     19.40589810	     41.42175987	    -43.81773899	    -43.59619823	    -34.68007877	   4039.36994556	  -2812.92866497	     26.15097231	    -27.83101648	    727.64020052	     18.88152609	      9.31318977	    -18.37781721
      2.72000000	    -40.71665832	     -9.14869432	     10.85355439	   -110.83039864	    777.31580808	      6.32898156	      6.17900798	    -45.00000000	     40.68903306	    -45.00000000	    -36.20482142	  -2968.28836954	  -1549.63432248	    144.08044876	    179.99999979	    727.37665188	     50.06273475	     22.78277305	     14.83682972	     19.38728199	     41.82835199	    -43.67101290	    -43.90750775	    -34.73648680	   4039.36933325	  -2812.93624521	     26.03213333	    -27.85944234	    727.87378389	     18.64743926	      9.14383833	    -18.43612141
      2.73000000	    -40.77618202	     -9.20100181	     11.03627315	   -113.00226806	    778.40861987	      6.21108908	      6.10652042	    -45.00000000	     40.43129431	    -45.00000000	    -36.70688761	  -2968.34779885	  -1549.47307661	    144.01718997	    179.99999979	    727.44661429	     49.96786340	     22.80973515	     14.79519856	     19.35912180	     41.84093563	    -43.44315595	    -44.11362708	    -34.96963325	   4039.39793607	  -2812.78417683	     26.17792839	    -27.69727051	    727.90152957	     18.37397770	      9.14943312	    -18.47830350
      2.74000000	    -40.94749637	     -9.75110306	     11.84415842	   -115.24126832	    779.57864290	      6.09524307	      6.46293071	    -45.00000000	     40.01299266	    -45.00000000	    -38.93584854	  -2968.45373082	  -1549.16997046	    143.74766565	    179.99999979	    727.94143537	     49.78845782	     23.04365681	     14.92027213	     19.77077304	     42.19796518	    -43.18659778	    -45.00000000	    -36.48351931	   4038.76408222	  -2812.47416151	     26.22269794	    -26.48220833	    728.08331644	     17.69387943	      8.86427653	    -18.47256267
      2.75000000	    -40.93192371	     -9.60702156	     11.76596838	   -117.53329019	    780.82325746	      5.98402226	      6.16345619	    -45.00000000	     39.82397452	    -45.00000000	    -38.52105728	  -2968.48657412	  -1549.03905357	    143.83424904	    179.99999979	    727.75880194	     49.68927167	     22.93964338	     14.77222151	     19.30926554	     42.08693680	    -42.92178651	    -45.00000000	    -36.08135005	   4039.10993783	  -2812.48530372	     26.36144350	    -27.07406267	    728.14784441	     17.50174871	      9.01366958	    -18.56306669
      2.76000000	    -40.75280970	    -10.28309381	     12.88500037	   -119.89533904	    782.14800008	      5.87899169	      6.62662217	    -45.00000000	     39.14408023	    -45.00000000	    -41.18575905	  -2968.79739591	  -1548.37247198	    143.25245576	    179.99999979	    728.08981598	     49.48230352	     23.06106559	     14.77602579	     19.77962593	     41.38492338	    -42.79190198	    -45.00000000	    -38.00603707	   4038.90439613	  -2811.67761267	     26.53623249	    -25.44285076	    728.16271139	     16.56009044	      9.04998527	    -18.54586104
      2.77000000	    -40.72761996	    -10.14520404	     12.87698507	   -122.32052466	    783.55582780	      5.78055687	      6.71297765	    -45.00000000	     39.20729105	    -45.00000000	    -41.38187183	  -2969.06319367	  -1548.15799445	    143.16565997	    179.99999979	    728.26211182	     49.33518927	     23.13505071	     14.77320589	     19.72080893	     41.38079684	    -42.75915222	    -45.00000000	    -37.93150682	   4039.14518369	  -2811.58484004	     26.47267466	    -25.59925466	    728.27959778	     16.00400985	      8.92401527	    -18.56966938
      2.78000000	    -40.91026752	     -9.33272269	     11.91729233	   -124.80385311	    785.04605554	      5.68886541	      6.18295632	    -45.00000000	     39.47746255	    -45.00000000	    -39.65483000	  -2969.03766319	  -1548.23224431	    143.47771977	    179.99999979	    728.12622673	     49.25033526	     23.09641338	     14.62368426	     18.89580470	     41.90504640	    -42.63254125	    -45.00000000	    -36.02027801	   4039.78061879	  -2812.01929881	     26.37613307	    -27.13167466	    728.35804438	     15.92997230	      9.04869358	    -18.70682009
      2.79000000	    -40.61269100	    -10.08180314	     13.12881231	   -127.35650544	    786.62265032	      5.60346231	      6.77074264	    -45.00000000	     39.05208376	    -45.00000000	    -42.14113855	  -2969.51278522	  -1547.56198373	    143.01752216	    179.99999979	    728.51255717	     49.06005100	     23.21744362	     14.61181974	     19.38106424	     41.11096848	    -42.53531975	    -45.00000000	    -38.30613239	   4039.57366430	  -2811.17576147	     26.54626558	    -25.53478535	    728.49096774	     14.78817894	      8.98700991	    -18.67700926
      2.80000000	    -40.62466213	     -9.64992716	     12.67003972	   -129.96563883	    788.28479737	      5.52395705	      6.68586380	    -45.00000000	     39.50983016	    -45.00000000	    -41.56555016	  -2969.74328861	  -1547.39051200	    143.16894858	    179.99999979	    728.80123071	     48.92638739	     23.35790422	     14.64717313	     19.20465435	     41.68275346	    -42.56226955	    -45.00000000	    -37.50661812	   4039.88522284	  -2811.27791742	     26.20367619	    -26.21205149	    728.70864769	     14.27969748	      8.69878265	    -18.73290432
      2.81000000	    -40.55324813	     -9.76114188	     13.12574159	   -132.63380510	    790.03227793	      5.45035678	      6.99100484	    -45.00000000	     39.10406224	    -45.00000000	    -42.69504303	  -2970.08444137	  -1547.03762876	    142.80140081	    179.99999979	    728.85261194	     48.77903419	     23.37574252	     14.53846870	     19.23277175	     41.05958007	    -42.42459924	    -45.00000000	    -38.29047534	   4040.02538299	  -2810.85522996	     26.44529657	    -25.67758262	    728.71698624	     13.36730784	      8.78058793	    -18.74245123
      2.82000000	    -40.49758942	     -9.56645713	     13.03755890	   -135.35832098	    791.86503802	      5.38256199	      6.99070054	    -45.00000000	     39.27538477	    -45.00000000	    -42.67781706	  -2970.36692054	  -1546.79416384	    142.83007409	    179.99999979	    729.07339936	     48.63666162	     23.47212072	     14.50558890	     19.10263819	     41.16485332	    -42.37604528	    -45.00000000	    -38.18186101	   4040.29452958	  -2810.77297097	     26.32350943	    -26.00863696	    728.89713689	     12.62749014	      8.66075542	    -18.79613316
      2.83000000	    -40.78212380	     -8.41221022	     11.83616989	   -138.13353327	    793.78011583	      5.32071001	      6.38912336	    -45.00000000	     39.29341981	    -45.00000000	    -40.61996133	  -2970.29416664	  -1546.98327102	    143.10508260	    179.99999979	    728.82874184	     48.56209275	     23.38091795	     14.20501544	     18.24343095	     41.78649943	    -42.21609134	    -45.00000000	    -35.59556048	   4040.98294699	  -2811.30795458	     26.29371957	    -27.40900449	    728.80542371	     12.47085784	      9.05566762	    -18.96108972
      2.84000000	    -40.40298914	     -9.32872804	     13.20432859	   -140.96649944	    795.77682967	      5.26498627	      7.15469756	    -45.00000000	     39.09621554	    -45.00000000	    -43.44717438	  -2970.96811898	  -1546.23784424	    142.53573718	    179.99999979	    729.29367144	     48.43779075	     23.57622218	     14.31153135	     18.78681904	     40.79647665	    -42.19707050	    -45.00000000	    -38.43467265	   4040.79251083	  -2810.39675304	     26.38696829	    -26.09499754	    729.02454222	     11.13298586	      8.67124716	    -18.89612571
